<svg xmlns="http://www.w3.org/2000/svg" viewBox="0 0 543 187.32"><defs><style>.cls-1,.cls-2{fill:none;stroke:#e2d1ac;stroke-miterlimit:10;stroke-width:3px;}.cls-1{opacity:0.5;}.cls-3{fill:#b32317;}</style></defs><title>Asset 2</title><g id="Layer_2" data-name="Layer 2"><g id="Miggie_Suggestion" data-name="Miggie Suggestion"><path class="cls-1" d="M40.5,11.5h501a0,0,0,0,1,0,0V155.82a30,30,0,0,1-30,30H40.5a30,30,0,0,1-30-30V41.5a30,30,0,0,1,30-30Z"/><path class="cls-2" d="M31.5,1.5h501a0,0,0,0,1,0,0V145.82a30,30,0,0,1-30,30H31.5a30,30,0,0,1-30-30V31.5A30,30,0,0,1,31.5,1.5Z"/><path class="cls-3" d="M41.58,94.73v-15l57.07-37V62.45L59.49,86.94v.59L98.65,112V131.7Z"/><path d="M21.92,94.73v-15L79,42.77V62.45L39.83,86.94v.59L79,112V131.7Z"/><path d="M172.33,81.69H154.58a.85.85,0,0,1-1-1V77.6a.84.84,0,0,1,1-.95h5.24V43.46H151.2l.32,5c0,.64-.25,1-.89,1h-3.9a.85.85,0,0,1-.95-1V39.31a.85.85,0,0,1,.95-1h33.39a.85.85,0,0,1,.95,1v9.12a.85.85,0,0,1-.95,1h-3.9c-.64,0-.93-.32-.89-1l.32-5H167V76.65h5.3a.85.85,0,0,1,1,.95v3.13A.85.85,0,0,1,172.33,81.69Z"/><path d="M199.26,82.45q-7.59,0-11.13-4.43t-3.55-11.75a19,19,0,0,1,3.77-12.09q3.77-4.78,10.85-4.79a13,13,0,0,1,6,1.31,9.41,9.41,0,0,1,3.86,3.54,19.35,19.35,0,0,1,2.56,10,7.85,7.85,0,0,1-.26,2.94,1.37,1.37,0,0,1-1,.25H191.67a13,13,0,0,0,2.26,7.12q1.95,2.52,6.74,2.52a17.51,17.51,0,0,0,7.21-1.66.83.83,0,0,1,1.28.51l1.21,2.94c.21.51,0,.94-.57,1.28A21.83,21.83,0,0,1,199.26,82.45Zm-7.59-19.72h13.27q.13-8-6.25-8-3.76,0-5.33,2.4A10.73,10.73,0,0,0,191.67,62.73Z"/><path d="M246.11,51.05v3.32a.84.84,0,0,1-1,1h-3.83l-7.15,9.57,7.21,11.75h4.41a.84.84,0,0,1,.95.95v3.13a.85.85,0,0,1-.95,1h-8.37a1.72,1.72,0,0,1-1.46-.83l-6.26-10.6-4.66,6.39h3.51a.85.85,0,0,1,1,.95v3.13a.85.85,0,0,1-1,1H215.35a.85.85,0,0,1-1-1V77.6a.85.85,0,0,1,1-.95h3.32l8.1-10.79-6.38-10.53h-4.08a.85.85,0,0,1-1-1V51.05a.85.85,0,0,1,1-1h8a1.5,1.5,0,0,1,1.4.83l5.62,9.9,4.08-5.49H233a.85.85,0,0,1-1-1V51.05a.85.85,0,0,1,1-1h12.13A.84.84,0,0,1,246.11,51.05Z"/><path d="M269.16,62.73V60.5c0-3-.85-4.92-2.56-5.68a9.39,9.39,0,0,0-3.51-.51c-2.89,0-4.64,1.36-5.23,4.08q-.19,1-1,1h-4.08q-1,0-.9-1a8,8,0,0,1,3.77-6.83,16.81,16.81,0,0,1,8.94-2.17q11.42,0,11.42,10.47V76.65h2.75a.84.84,0,0,1,.95.95v3.13a.85.85,0,0,1-.95,1h-7.54c-.55,0-.87-.32-.95-1l-.45-2.93q-3.45,4.65-10,4.65a10.51,10.51,0,0,1-6.76-2.13q-2.69-2.14-2.68-6.87,0-6.18,5.17-8.48a26,26,0,0,1,10.21-2.17C266.65,62.8,267.75,62.77,269.16,62.73Zm.12,9.32V67.14q-6.12,0-7.53.57c-.93.38-1.76.77-2.49,1.15a4.07,4.07,0,0,0-2,4q0,4.4,5,4.4a7.77,7.77,0,0,0,5.17-1.56A4.63,4.63,0,0,0,269.28,72.05Z"/><path d="M287.86,52.2a12.16,12.16,0,0,1,8.23-2.81,28.65,28.65,0,0,1,8.62,1.15,1.1,1.1,0,0,1,.89,1.15v6.76a.85.85,0,0,1-1,1h-3.71c-.68,0-.95-.32-.83-1l.32-3.25a8.8,8.8,0,0,0-4.21-1c-3.4,0-5.11,1.19-5.11,3.57a3.36,3.36,0,0,0,1.66,2.94,14.59,14.59,0,0,0,4,1.75c1.58.45,3.16,1,4.76,1.54a9,9,0,0,1,4.05,2.93,8.16,8.16,0,0,1,1.66,5.27,9.16,9.16,0,0,1-3.38,7.56q-3.39,2.72-9.51,2.71a34.54,34.54,0,0,1-9-1.27,1.14,1.14,0,0,1-.83-1.21V73.2a.85.85,0,0,1,1-1h3.7c.64,0,.93.32.89,1l-.19,3.32a8.17,8.17,0,0,0,4.92,1.28c3.78,0,5.68-1.35,5.68-4a3.78,3.78,0,0,0-1.63-3.22,12.27,12.27,0,0,0-4-1.82c-1.55-.42-3.12-.9-4.69-1.43a8.71,8.71,0,0,1-4-2.81,8.15,8.15,0,0,1-1.63-5.27A8.89,8.89,0,0,1,287.86,52.2Z"/><path d="M349.77,81.69H332a.85.85,0,0,1-1-1V77.6a.85.85,0,0,1,1-.95h5.23V43.46h-8.62l.32,5a.78.78,0,0,1-.89,1h-3.89a.85.85,0,0,1-1-1V39.31a.85.85,0,0,1,1-1h33.38a.85.85,0,0,1,1,1v9.12a.85.85,0,0,1-1,1h-3.89a.79.79,0,0,1-.9-1l.32-5h-8.62V76.65h5.3a.85.85,0,0,1,1,.95v3.13A.85.85,0,0,1,349.77,81.69Z"/><path d="M376.71,82.45q-7.6,0-11.14-4.43T362,66.27a19,19,0,0,1,3.76-12.09q3.76-4.78,10.85-4.79a13,13,0,0,1,6,1.31,9.5,9.5,0,0,1,3.87,3.54,19.44,19.44,0,0,1,2.55,10,7.85,7.85,0,0,1-.26,2.94,1.35,1.35,0,0,1-.95.25H369.11a12.9,12.9,0,0,0,2.27,7.12c1.29,1.68,3.54,2.52,6.73,2.52a17.51,17.51,0,0,0,7.21-1.66.83.83,0,0,1,1.28.51l1.21,2.94c.22.51,0,.94-.57,1.28A21.82,21.82,0,0,1,376.71,82.45Zm-7.6-19.72h13.28q.12-8-6.26-8-3.76,0-5.33,2.4A10.82,10.82,0,0,0,369.11,62.73Z"/><path d="M400.52,65.48q0,11.61,9,11.61a16.77,16.77,0,0,0,6.71-1.72.91.91,0,0,1,1.34.57l1.15,2.81a1,1,0,0,1-.51,1.34,18.66,18.66,0,0,1-9.83,2.36q-7.72,0-11.43-4.37t-3.7-11.87q0-7.5,3.8-12.16t11.33-4.66c3.83,0,6.65,1,8.48,3.13a11.64,11.64,0,0,1,2.75,8c0,.55-.36.83-1.09.83h-3.82a.94.94,0,0,1-1.09-1c-.21-3.74-2.11-5.62-5.68-5.62a6.32,6.32,0,0,0-5.62,2.65Q400.52,60.06,400.52,65.48Z"/><path d="M422.15,38.35V35a.85.85,0,0,1,1-1h9.64a.85.85,0,0,1,1,1V54.69a11.3,11.3,0,0,1,9.89-5.3q9.88,0,9.89,10.85V76.65h3.77a.85.85,0,0,1,1,.95v3.13a.85.85,0,0,1-1,1h-14a.85.85,0,0,1-1-1V77.6a.85.85,0,0,1,1-.95h3.06V63.43a12.74,12.74,0,0,0-1-5.87q-1-1.85-4.21-1.85a7.58,7.58,0,0,0-5.3,1.92,5.74,5.74,0,0,0-2.1,4.34V76.65h3.89a.85.85,0,0,1,1,.95v3.13a.85.85,0,0,1-1,1H423.11a.85.85,0,0,1-1-1V77.6a.85.85,0,0,1,1-.95h3.45V39.31h-3.45A.85.85,0,0,1,422.15,38.35Z"/><path d="M165.44,123.72v-2.23c0-3-.86-4.91-2.56-5.68a9.43,9.43,0,0,0-3.51-.51c-2.89,0-4.64,1.36-5.23,4.08q-.19,1-1,1H149.1c-.69,0-1-.32-.9-1a8,8,0,0,1,3.77-6.83,16.8,16.8,0,0,1,8.93-2.17q11.43,0,11.43,10.47v16.79h2.74a.85.85,0,0,1,1,1v3.12a.85.85,0,0,1-1,1h-7.53q-.82,0-1-1l-.44-2.93q-3.45,4.65-10,4.66a10.52,10.52,0,0,1-6.76-2.14c-1.79-1.43-2.69-3.71-2.69-6.86q0-6.19,5.17-8.49a26.08,26.08,0,0,1,10.22-2.17C162.92,123.79,164,123.77,165.44,123.72Zm.12,9.32v-4.91q-6.12,0-7.53.57c-.93.38-1.76.77-2.49,1.15a4.08,4.08,0,0,0-2,4c0,2.94,1.68,4.4,5,4.4a7.79,7.79,0,0,0,5.17-1.56A4.6,4.6,0,0,0,165.56,133Z"/><path d="M187.46,126.47q0,11.61,9,11.61a16.77,16.77,0,0,0,6.7-1.72.92.92,0,0,1,1.34.58l1.15,2.81a1,1,0,0,1-.51,1.33,18.66,18.66,0,0,1-9.83,2.37q-7.73,0-11.43-4.37t-3.7-11.88q0-7.5,3.8-12.16t11.33-4.66c3.83,0,6.66,1.05,8.49,3.13a11.67,11.67,0,0,1,2.74,8c0,.55-.36.83-1.08.83h-3.83a.94.94,0,0,1-1.09-1c-.21-3.74-2.11-5.61-5.68-5.61a6.31,6.31,0,0,0-5.62,2.64Q187.46,121,187.46,126.47Z"/><path d="M209.41,115.36V112a.85.85,0,0,1,1-1h8.74c.56,0,.88.32,1,1l.51,3.71a10.94,10.94,0,0,1,10-5.37q6.63,0,8.74,5.62a11.09,11.09,0,0,1,10-5.62q9.88,0,9.89,10.86v16.4h3.64a.84.84,0,0,1,1,1v3.12a.84.84,0,0,1-1,1h-14a.85.85,0,0,1-.95-1V138.6a.85.85,0,0,1,.95-1h3.26V124.43a12.79,12.79,0,0,0-1-5.88c-.68-1.23-2.05-1.85-4.12-1.85a7.19,7.19,0,0,0-4.95,1.66,5.11,5.11,0,0,0-1.85,3.9v15.38h3.07a.85.85,0,0,1,1,1v3.12a.85.85,0,0,1-1,1H230.09a.84.84,0,0,1-1-1V138.6a.84.84,0,0,1,1-1H233V124.43a12.79,12.79,0,0,0-1-5.88q-1-1.85-4.18-1.85a6.61,6.61,0,0,0-5,1.89A6.09,6.09,0,0,0,221,123v14.68h3.89a.85.85,0,0,1,1,1v3.12a.85.85,0,0,1-1,1H210.43a.84.84,0,0,1-1-1V138.6a.84.84,0,0,1,1-1h3.39V116.32h-3.45A.85.85,0,0,1,209.41,115.36Z"/><path d="M287.09,126.47q0,11.61,9,11.61a16.69,16.69,0,0,0,6.7-1.72.91.91,0,0,1,1.34.58l1.15,2.81a1,1,0,0,1-.51,1.33,18.61,18.61,0,0,1-9.83,2.37q-7.72,0-11.42-4.37t-3.71-11.88q0-7.5,3.8-12.16t11.33-4.66c3.83,0,6.66,1.05,8.49,3.13a11.67,11.67,0,0,1,2.75,8c0,.55-.37.83-1.09.83h-3.83a.94.94,0,0,1-1.08-1q-.33-5.61-5.68-5.61a6.3,6.3,0,0,0-5.62,2.64Q287.1,121,287.09,126.47Z"/><path d="M308.73,99.34V96a.84.84,0,0,1,1-1h9.63a.84.84,0,0,1,1,1v19.66a11.3,11.3,0,0,1,9.89-5.3q9.9,0,9.9,10.86v16.4h3.76a.85.85,0,0,1,1,1v3.12a.85.85,0,0,1-1,1h-14a.85.85,0,0,1-1-1V138.6a.85.85,0,0,1,1-1h3.06V124.43a12.79,12.79,0,0,0-1-5.88c-.68-1.23-2.09-1.85-4.21-1.85a7.56,7.56,0,0,0-5.3,1.92,5.72,5.72,0,0,0-2.11,4.34v14.68h3.89a.85.85,0,0,1,1,1v3.12a.85.85,0,0,1-1,1H309.69a.85.85,0,0,1-1-1V138.6a.85.85,0,0,1,1-1h3.44V100.3h-3.44A.85.85,0,0,1,308.73,99.34Z"/><path d="M366.62,123.72v-2.23q0-4.53-2.55-5.68a9.43,9.43,0,0,0-3.51-.51c-2.9,0-4.64,1.36-5.24,4.08-.12.64-.44,1-.95,1h-4.09c-.68,0-1-.32-.89-1a8,8,0,0,1,3.76-6.83,16.81,16.81,0,0,1,8.94-2.17q11.43,0,11.43,10.47v16.79h2.74a.85.85,0,0,1,1,1v3.12a.85.85,0,0,1-1,1h-7.53q-.84,0-1-1l-.45-2.93q-3.44,4.65-9.95,4.66a10.55,10.55,0,0,1-6.77-2.14c-1.79-1.43-2.68-3.71-2.68-6.86q0-6.19,5.17-8.49a26,26,0,0,1,10.21-2.17C364.11,123.79,365.22,123.77,366.62,123.72Zm.13,9.32v-4.91q-6.13,0-7.53.57a27.12,27.12,0,0,0-2.49,1.15,4.08,4.08,0,0,0-2,4c0,2.94,1.68,4.4,5,4.4a7.8,7.8,0,0,0,5.17-1.56A4.63,4.63,0,0,0,366.75,133Z"/><path d="M384.81,152.32v-36h-3.45a.85.85,0,0,1-.95-1V112a.84.84,0,0,1,.95-1h8.69c.51,0,.83.32.95,1l.64,3.83q3.25-5.49,10-5.49a11.45,11.45,0,0,1,9.19,3.87q3.33,3.85,3.32,11.39,0,9.12-3.89,13.47a12.87,12.87,0,0,1-10,4.34,12.67,12.67,0,0,1-8.3-2.68v11.48h6.77a.85.85,0,0,1,.95,1v3.19a.85.85,0,0,1-.95,1h-17.3a.85.85,0,0,1-1-1v-3.12a.85.85,0,0,1,1-1Zm7.15-29v12.19a9.09,9.09,0,0,0,3.13,1.85,11.29,11.29,0,0,0,4.15.83,6.89,6.89,0,0,0,5.71-2.52q2-2.52,2-8.52,0-8.17-3.57-10a8.88,8.88,0,0,0-4.22-.83,7.55,7.55,0,0,0-4.94,1.88A6.33,6.33,0,0,0,392,123.28Z"/><path d="M429.11,116.32v16.09a9.22,9.22,0,0,0,.76,4.34,3,3,0,0,0,2.88,1.33,9.75,9.75,0,0,0,4.08-.89.73.73,0,0,1,1,.51l1.15,2.94a1.86,1.86,0,0,1,.07.54c0,.23-.22.48-.64.73a16,16,0,0,1-7.28,1.54q-5.68,0-7.47-2.94a8.25,8.25,0,0,1-1.46-3.7,46.33,46.33,0,0,1-.26-5.11V116.32h-3.64a.85.85,0,0,1-1-1V112a.85.85,0,0,1,1-1H422v-8.62a.85.85,0,0,1,1-1h5.23a.85.85,0,0,1,1,1v8.62h6.45a.84.84,0,0,1,.95,1v3.32a.85.85,0,0,1-.95,1Z"/><path d="M456.87,143.45q-7.59,0-11.13-4.44t-3.55-11.74a19,19,0,0,1,3.77-12.1q3.77-4.78,10.85-4.79a13,13,0,0,1,6,1.31,9.5,9.5,0,0,1,3.86,3.55,19.4,19.4,0,0,1,2.56,10,7.82,7.82,0,0,1-.26,2.93,1.36,1.36,0,0,1-1,.26H449.28a13,13,0,0,0,2.26,7.11c1.3,1.69,3.55,2.52,6.74,2.52a17.65,17.65,0,0,0,7.21-1.65.82.82,0,0,1,1.28.51l1.21,2.93c.21.51,0,.94-.57,1.28A21.83,21.83,0,0,1,456.87,143.45Zm-7.59-19.73h13.27q.13-8-6.25-8c-2.51,0-4.29.79-5.33,2.39A10.79,10.79,0,0,0,449.28,123.72Z"/><path d="M487.45,112.2a8.64,8.64,0,0,1,5.3-1.82,14.64,14.64,0,0,1,4.4.51,1.1,1.1,0,0,1,.77,1.15v8.62a.85.85,0,0,1-1,1h-4.15a.78.78,0,0,1-.89-1l.25-3.7a6.32,6.32,0,0,0-1.08-.07,6,6,0,0,0-4.86,2.4,10,10,0,0,0-1.91,6.41v11.94h7a.85.85,0,0,1,1,1v3.12a.85.85,0,0,1-1,1H473.79a.85.85,0,0,1-1-1V138.6a.85.85,0,0,1,1-1h3.38V116.32h-3.45a.85.85,0,0,1-1-1V112a.84.84,0,0,1,1-1h8.43a1,1,0,0,1,1.08,1l.71,4.54A10.53,10.53,0,0,1,487.45,112.2Z"/></g></g></svg>